<!DOCTYPE svg PUBLIC "-//W3C//DTD SVG 1.1//EN" "http://www.w3.org/Graphics/SVG/1.1/DTD/svg11.dtd">
<!-- Uploaded to: SVG Repo, www.svgrepo.com, Transformed by: SVG Repo Mixer Tools -->
<svg height="800px" width="800px" version="1.1" id="Layer_1" xmlns="http://www.w3.org/2000/svg" xmlns:xlink="http://www.w3.org/1999/xlink" viewBox="0 0 512.004 512.004" xml:space="preserve" fill="#000000">
<g id="SVGRepo_bgCarrier" stroke-width="0"/>
<g id="SVGRepo_tracerCarrier" stroke-linecap="round" stroke-linejoin="round"/>
<g id="SVGRepo_iconCarrier"> <path style="fill:#A9D0D3;" d="M422.4,217.602c0-112.922-91.878-204.8-204.8-204.8s-204.8,91.878-204.8,204.8 s91.878,204.8,204.8,204.8S422.4,330.524,422.4,217.602z"/> <path style="fill:#9a9996;" d="M380.254,362.148c-0.06-0.06-0.137-0.077-0.196-0.128c34.193-38.434,55.142-88.917,55.142-144.418 c0-120.175-97.425-217.6-217.6-217.6S0,97.427,0,217.602s97.425,217.6,217.6,217.6c55.501,0,105.975-20.949,144.418-55.151 c0.06,0.06,0.077,0.137,0.128,0.196l128,128c2.5,2.509,5.777,3.755,9.054,3.755c3.277,0,6.554-1.246,9.054-3.746 c5-5.001,5-13.099,0-18.099L380.254,362.148z M217.6,409.602c-105.865,0-192-86.135-192-192s86.135-192,192-192s192,86.135,192,192 S323.465,409.602,217.6,409.602z"/> </g>
</svg>